<svg width="294.425" height="390.426" viewBox="0 0 77.9 103.3" xml:space="preserve" xmlns="http://www.w3.org/2000/svg"><defs><filter style="color-interpolation-filters:sRGB" id="a" x="-.113" y="-.081" width="1.227" height="1.162"><feFlood flood-opacity=".498" flood-color="#000" result="flood"/><feComposite in="flood" in2="SourceGraphic" operator="in" result="composite1"/><feGaussianBlur in="composite1" stdDeviation="3" result="blur"/><feOffset result="offset"/><feComposite in="SourceGraphic" in2="offset" result="composite2"/></filter></defs><g transform="translate(103.716 -54.72)" style="filter:url(#a)"><rect style="fill:#fff;stroke-width:.264583" width="63.5" height="88.9" x="33.016" y="61.919" ry="3.548" transform="scale(-1 1)"/><rect style="fill:#e6e6e6;stroke-width:.248776" width="58.963" height="84.642" x="35.285" y="64.048" ry="3.378" transform="scale(-1 1)"/><g style="fill:#333;fill-opacity:1"><path style="fill:#333;fill-opacity:1;stroke-width:.256438" d="M57.579 56.774a2.765 2.765 0 0 0-2.772 2.771v12.2a2.765 2.765 0 0 0 2.772 2.771h15.6a2.765 2.765 0 0 0 2.772-2.771v-12.2a2.765 2.765 0 0 0-2.772-2.77zm2.477 5.19H70.79v7.495H60.056Z" transform="translate(-95.357 107.304) scale(.39774)"/><path style="fill:#333;fill-opacity:1;stroke-width:.255811" d="M77.887 56.863v15.045a2.779 2.779 0 0 0 2.785 2.786h15.365a2.779 2.779 0 0 0 2.785-2.786V56.863h-5.1v12.596H82.944V56.907l-.001-.044h-2.27z" transform="translate(-95.357 107.304) scale(.39774)"/><g style="fill:#333;fill-opacity:1"><path style="fill:#333;fill-opacity:1;stroke-width:.256893" d="M100.188 52.605a2.779 2.779 0 0 0-2.785 2.785v5.199h-.044v15.346h5.367v-5.5h.021l-.021-.044V57.794h10.556v7.452h-1.907l-5.19 5.19h9.546a2.78 2.78 0 0 0 2.785-2.786V55.39a2.779 2.779 0 0 0-2.785-2.785z" transform="translate(-93.98 108.963) scale(.39774)"/><path style="fill:#333;fill-opacity:1;stroke-width:.264583" d="m104.589 70.347 7.074-7.075h1.131l-7.152 7.152zM108.714 65.645l-4.613 4.79h-1.11l4.813-4.812z" transform="translate(-93.98 108.963) scale(.39774)"/></g><g style="fill:#333;fill-opacity:1"><path style="fill:#333;fill-opacity:1;stroke-width:.255714" d="M31.158 52.693a2.765 2.765 0 0 0-2.771 2.772v12.2a2.765 2.765 0 0 0 2.771 2.77h14.5l-5.234-5.233h-6.803V57.75H44.09v1.508h5.322v-3.793a2.765 2.765 0 0 0-2.771-2.772z" transform="translate(-93.98 108.963) scale(.39774)"/><path style="fill:#333;fill-opacity:1;stroke-width:.264583" d="M39.08 63.354h1.254l7.072 7.073h-1.333zM48.99 70.38h-1.192l-5.08-5.081h1.191z" transform="translate(-93.98 108.963) scale(.39774)"/></g></g><path style="fill:#333;fill-opacity:1;stroke-width:.264583" d="m-132.885 62.984-5.27 1.474-1.474 5.27-1.474-5.27-5.27-1.474 5.27-1.474 1.474-5.27 1.474 5.27z" transform="translate(74.863 43.385)"/><g style="fill:#333;fill-opacity:1"><path style="fill:#333;fill-opacity:1;stroke-width:.256438" d="M57.579 56.774a2.765 2.765 0 0 0-2.772 2.771v12.2a2.765 2.765 0 0 0 2.772 2.771h15.6a2.765 2.765 0 0 0 2.772-2.771v-12.2a2.765 2.765 0 0 0-2.772-2.77zm2.477 5.19H70.79v7.495H60.056Z" transform="rotate(180 -17.088 52.717) scale(.39774)"/><path style="fill:#333;fill-opacity:1;stroke-width:.255811" d="M77.887 56.863v15.045a2.779 2.779 0 0 0 2.785 2.786h15.365a2.779 2.779 0 0 0 2.785-2.786V56.863h-5.1v12.596H82.944V56.907l-.001-.044h-2.27z" transform="rotate(180 -17.088 52.717) scale(.39774)"/><g style="fill:#333;fill-opacity:1"><path style="fill:#333;fill-opacity:1;stroke-width:.256893" d="M100.188 52.605a2.779 2.779 0 0 0-2.785 2.785v5.199h-.044v15.346h5.367v-5.5h.021l-.021-.044V57.794h10.556v7.452h-1.907l-5.19 5.19h9.546a2.78 2.78 0 0 0 2.785-2.786V55.39a2.779 2.779 0 0 0-2.785-2.785z" transform="rotate(180 -17.776 51.888) scale(.39774)"/><path style="fill:#333;fill-opacity:1;stroke-width:.264583" d="m104.589 70.347 7.074-7.075h1.131l-7.152 7.152zM108.714 65.645l-4.613 4.79h-1.11l4.813-4.812z" transform="rotate(180 -17.776 51.888) scale(.39774)"/></g><g style="fill:#333;fill-opacity:1"><path style="fill:#333;fill-opacity:1;stroke-width:.255714" d="M31.158 52.693a2.765 2.765 0 0 0-2.771 2.772v12.2a2.765 2.765 0 0 0 2.771 2.77h14.5l-5.234-5.233h-6.803V57.75H44.09v1.508h5.322v-3.793a2.765 2.765 0 0 0-2.771-2.772z" transform="rotate(180 -17.776 51.888) scale(.39774)"/><path style="fill:#333;fill-opacity:1;stroke-width:.264583" d="M39.08 63.354h1.254l7.072 7.073h-1.333zM48.99 70.38h-1.192l-5.08-5.081h1.191z" transform="rotate(180 -17.776 51.888) scale(.39774)"/></g></g><path style="fill:#fff;fill-opacity:1;stroke-width:.172864" d="m-80.039 61.92-16.477 16.477v1.233l.013-.004 17.706-17.707zM-33.016 78.397l-16.478-16.478h-1.233l.004.013 17.707 17.707zM-96.516 134.342l16.477 16.477h1.233l-.004-.013-17.706-17.706zM-49.494 150.82l16.478-16.478v-1.233l-.013.004-17.706 17.706z"/></g></svg>