<svg width="294.425" height="390.425" viewBox="0 0 77.9 103.3" xml:space="preserve" xmlns="http://www.w3.org/2000/svg"><defs><filter style="color-interpolation-filters:sRGB" id="a" x="-.113" y="-.081" width="1.227" height="1.162"><feFlood flood-opacity=".498" flood-color="#000" result="flood"/><feComposite in="flood" in2="SourceGraphic" operator="in" result="composite1"/><feGaussianBlur in="composite1" stdDeviation="3" result="blur"/><feOffset result="offset"/><feComposite in="SourceGraphic" in2="offset" result="composite2"/></filter></defs><g style="filter:url(#a)" transform="translate(304.481 35.057)"><rect style="fill:#fff;stroke-width:.264583" width="63.5" height="88.9" x="233.781" y="-27.857" ry="3.548" transform="scale(-1 1)"/><rect style="fill:#6982d2;fill-opacity:1;stroke-width:.248776" width="58.963" height="84.642" x="236.05" y="-25.728" ry="3.378" transform="scale(-1 1)"/><text xml:space="preserve" style="font-size:3.175px;fill:#fff;fill-opacity:1;stroke-width:.264583" x="-278.884" y="31.668"><tspan style="font-style:normal;font-variant:normal;font-weight:400;font-stretch:normal;font-size:5.64444px;font-family:'Copperplate Gothic Light';-inkscape-font-specification:'Copperplate Gothic Light, Normal';font-variant-ligatures:normal;font-variant-caps:normal;font-variant-numeric:normal;font-variant-east-asian:normal;fill:#fff;fill-opacity:1;stroke-width:.264583" x="-278.884" y="31.668">CAPTAIN</tspan></text></g><path style="fill:#fff;fill-opacity:1;stroke-width:.172864" d="m-14.404 52.172-16.478-16.477h-1.233l.005.013 17.706 17.706z" transform="translate(85.104 -28.495)"/><path style="fill:#fff;fill-opacity:1;stroke-width:.172864" d="m-14.404 52.172-16.478-16.477h-1.233l.005.013 17.706 17.706z" transform="rotate(90 -2.055 108.45)"/><path style="fill:#fff;fill-opacity:1;stroke-width:.172864" d="m-14.404 52.172-16.478-16.477h-1.233l.005.013 17.706 17.706z" transform="rotate(180 -3.602 65.897)"/><path style="fill:#fff;fill-opacity:1;stroke-width:.172864" d="m-14.404 52.172-16.478-16.477h-1.233l.005.013 17.706 17.706z" transform="rotate(-90 -17.85 10.645)"/></svg>