<svg width="214.153" height="196.67" viewBox="0 0 56.661 52.036" xml:space="preserve" xmlns="http://www.w3.org/2000/svg"><defs><filter style="color-interpolation-filters:sRGB" id="a" x="-.17" y="-.191" width="1.341" height="1.383"><feFlood flood-opacity=".498" flood-color="#000" result="flood"/><feComposite in="flood" in2="SourceGraphic" operator="in" result="composite1"/><feGaussianBlur in="composite1" stdDeviation="3" result="blur"/><feOffset result="offset"/><feComposite in="SourceGraphic" in2="offset" result="composite2"/></filter></defs><g transform="translate(170.39 97.591)" style="filter:url(#a)"><path style="fill:#666;fill-opacity:1;stroke-width:.264583" d="M-288.796-114.164c.499 1.92-2.154 7.702-2.682 9.614-.528 1.912-1.219 8.235-2.632 9.627-1.414 1.392-7.747 1.985-9.667 2.484-1.92.499-7.741 3.062-9.653 2.534-1.912-.528-5.593-5.716-6.985-7.13-1.392-1.413-6.522-5.172-7.021-7.092-.499-1.92 2.154-7.701 2.682-9.614.528-1.912 1.219-8.235 2.632-9.627 1.414-1.392 7.747-1.985 9.667-2.484 1.92-.499 7.74-3.062 9.653-2.534 1.912.528 5.593 5.716 6.985 7.13 1.392 1.413 6.522 5.172 7.02 7.092z" transform="rotate(15 -401.112 605.698) scale(1.05862)"/><path style="fill:#f2f2f2;fill-opacity:1;stroke-width:.264583" d="M-288.796-114.164c.499 1.92-2.154 7.702-2.682 9.614-.528 1.912-1.219 8.235-2.632 9.627-1.414 1.392-7.747 1.985-9.667 2.484-1.92.499-7.741 3.062-9.653 2.534-1.912-.528-5.593-5.716-6.985-7.13-1.392-1.413-6.522-5.172-7.021-7.092-.499-1.92 2.154-7.701 2.682-9.614.528-1.912 1.219-8.235 2.632-9.627 1.414-1.392 7.747-1.985 9.667-2.484 1.92-.499 7.74-3.062 9.653-2.534 1.912.528 5.593 5.716 6.985 7.13 1.392 1.413 6.522 5.172 7.02 7.092z" transform="rotate(15 -367.783 540.3)"/><text xml:space="preserve" style="font-style:normal;font-variant:normal;font-weight:400;font-stretch:normal;font-size:3.175px;font-family:sans-serif;-inkscape-font-specification:'sans-serif, Normal';font-variant-ligatures:normal;font-variant-caps:normal;font-variant-numeric:normal;font-variant-east-asian:normal;fill:#333;fill-opacity:1;stroke-width:.264583" x="-145.678" y="-67.427"><tspan style="font-style:normal;font-variant:normal;font-weight:400;font-stretch:normal;font-size:14.1111px;font-family:'Calisto MT';-inkscape-font-specification:'Calisto MT, Normal';font-variant-ligatures:normal;font-variant-caps:normal;font-variant-numeric:normal;font-variant-east-asian:normal;fill:#333;stroke-width:.264583" x="-145.678" y="-67.427">1</tspan></text><path style="fill:#333;fill-opacity:1;stroke-width:.264583" d="M-142.068-80.13a7.806 7.806 0 0 0-7.806 7.807 7.806 7.806 0 0 0 7.806 7.807 7.806 7.806 0 0 0 7.807-7.807 7.806 7.806 0 0 0-7.807-7.806zm0 .533a7.274 7.274 0 0 1 7.274 7.274 7.274 7.274 0 0 1-7.274 7.275 7.274 7.274 0 0 1-7.274-7.275 7.274 7.274 0 0 1 7.274-7.274z"/><path style="fill:#333;fill-opacity:1;stroke-width:.299253" d="M-143.817-88.97v6.438a8.05 7.806 0 0 1 1.757-.19 8.05 7.806 0 0 1 1.756.19v-6.388c-.652.05-1.235.09-1.624.087-.442-.004-1.118-.063-1.889-.137z"/><path style="fill:#333;fill-opacity:1;stroke-width:.227874" d="M-136.934-89.173c-.62.036-1.227.082-1.819.13v7.01a8.05 7.806 0 0 1 1.82 1.099z"/><path style="fill:#333;fill-opacity:1;stroke-width:.220962" d="M-147.095-89.263v8.258a8.05 7.806 0 0 1 1.819-1.06v-7.044a74.957 74.957 0 0 0-1.82-.154z"/><path style="fill:#333;fill-opacity:1;stroke-width:.299253" d="M-143.817-62.007v7.781c.652-.05 1.236-.09 1.625-.087.442.003 1.118.063 1.888.136v-7.83a8.05 7.806 0 0 1-1.756.19 8.05 7.806 0 0 1-1.757-.19z"/><path style="fill:#333;fill-opacity:1;stroke-width:.227874" d="M-136.934-63.61a8.05 7.806 0 0 1-1.819 1.099v8.483c.594.056 1.206.108 1.82.15z"/><path style="fill:#333;fill-opacity:1;stroke-width:.220962" d="M-147.095-63.534v9.555a87.483 87.483 0 0 0 1.818-.131v-8.363a8.05 7.806 0 0 1-1.818-1.06z"/></g></svg>