<svg width="487.269" height="303.207" viewBox="0 0 128.923 80.224" xml:space="preserve" xmlns="http://www.w3.org/2000/svg"><defs><filter style="color-interpolation-filters:sRGB" id="a" x="-.065" y="-.114" width="1.131" height="1.228"><feFlood flood-opacity=".498" flood-color="#000" result="flood"/><feComposite in="flood" in2="SourceGraphic" operator="in" result="composite1"/><feGaussianBlur in="composite1" stdDeviation="3" result="blur"/><feOffset result="offset"/><feComposite in="SourceGraphic" in2="offset" result="composite2"/></filter></defs><g style="filter:url(#a)" transform="translate(306.284 125.139)"><path style="fill:#000;stroke-width:.264583" d="M-241.823-96.82a11.793 11.793 0 0 0-11.792 11.793 11.793 11.793 0 0 0 11.792 11.793 11.793 11.793 0 0 0 11.793-11.793 11.793 11.793 0 0 0-11.793-11.793zm0 .621a11.172 11.172 0 0 1 11.172 11.172 11.172 11.172 0 0 1-11.172 11.172 11.172 11.172 0 0 1-11.171-11.172A11.172 11.172 0 0 1-241.823-96.2z"/><g transform="translate(-3.334 1.536)" style="fill:#1a1a1a"><rect style="fill:#1a1a1a;stroke-width:.125329" width=".535" height="15.807" x="-238.756" y="-94.467" ry="0"/><rect style="fill:#1a1a1a;stroke-width:.125329" width=".535" height="15.807" x="-86.831" y="230.585" ry="0" transform="rotate(90)"/></g><ellipse style="fill:none;fill-opacity:1;stroke:#1a1a1a;stroke-width:.515533;stroke-dasharray:3.0932,.515533;stroke-dashoffset:0;stroke-opacity:1" cx="-241.823" cy="-85.027" rx="57.004" ry="32.654"/></g></svg>